<svg version="1.2" xmlns="http://www.w3.org/2000/svg" viewBox="0 0 400 400" width="400" height="400">
	<title>Proyecto nuevo</title>
	<style>
		.s0 { fill: #9e2e20 } 
		.s1 { fill: #ffffff;stroke: #9f2a1b;stroke-miterlimit:0;stroke-dasharray: NaN } 
		.s2 { fill: #9e2e20;stroke: #ffffff;stroke-miterlimit:0;stroke-dasharray: NaN } 
	</style>
	<path id="Background" class="s0" d="m200 393c-107.8 0-195-86.5-195-193.5 0-107 87.2-193.5 195-193.5 107.8 0 195 86.5 195 193.5 0 107-87.2 193.5-195 193.5z"/>
	<path id="KURU" class="s1" aria-label="KURU"  d="m110.1 229h-31.8q-1.4-8.2-5.8-15.2-4.2-7-10.6-11.7v26.9h-34.3v-8.8h4.7v-81.3h-4.7v-8.8h34.3v51.9q0.4 0 0.8 0.1 0.4 0 0.8 0.2 0.4 0.1 0.8 0.3 0.4 0 0.8 0l25.8-52.5h16.3v8.8h-4.8l-24 48.6q9.8 5.1 16.9 13.6 7.1 8.4 10.3 19.1h4.5zm89.4-90.1h-4.6v60.1q0 12.6-11.4 21.7-11.4 8.9-27.4 8.9-16 0-27.4-8.9-11.4-9.1-11.4-21.7v-60.1h-4.6v-8.8h34.2v82.5q0 3.8 2.5 6.6 2.6 2.6 6.4 2.6 3.9 0 6.5-2.6 2.7-2.8 2.7-6.6v-82.5h34.5zm83.2 90.2h-29.7q-1.7-10-5.6-17-4-7-10.7-10.4v27.4h-34.3v-8.8h4.8v-81.4h-4.8v-8.7h32.3q18.8 0 32.2 9.4 13.5 9.3 13.5 23.2 0 8.7-5.9 16.7-5.9 7.8-15.5 13.1 7.7 5.1 12.1 12.2 4.5 7.1 6.9 15.5h4.7zm-34.3-59.7q0.7-2.8 0.9-5.2 0.2-2.5 0.2-4.8 0-7.8-2.6-13.2-2.6-5.5-6.7-6.7-0.4-0.1-0.8-0.1-0.4-0.2-0.8-0.2-0.3 0-0.6 0-0.1 0-0.4 0.2-0.2 0-0.5 0.1-0.2 0-0.4 0v52.3q3.7-2.8 6.8-8.7 3.3-6.1 4.9-13.7zm123.2-30.4h-4.6v60.1q0 12.6-11.4 21.6-11.4 8.9-27.4 8.9-16 0-27.4-8.9-11.4-9-11.4-21.6v-60.1h-4.6v-8.8h34.2v82.5q0 3.8 2.5 6.5 2.6 2.6 6.4 2.6 3.8 0 6.4-2.6 2.8-2.7 2.8-6.5v-82.5h34.5z"/>
	<path id="MANGA STORE" class="s2" aria-label="MANGA STORE"  d="m122.9 270h-11.3v-26.7q0-0.1 0-0.2 0-0.1 0-0.2-0.1-1.2-0.8-2.2-0.8-1-2-1-1.2 0-1.9 1-0.8 1-0.9 2.2 0 0.1 0 0.2 0 0.1 0 0.2v26.7h-9.5v-26.7q0-0.1 0-0.2 0-0.1 0-0.2-0.1-1.2-0.9-2.2-0.7-1-1.9-1-1.2 0-1.9 1-0.7 1-0.9 2.2 0 0.1 0 0.2 0 0.1 0 0.2v26.7h-11.2v-2.9h1.5v-20.9q0-3.8 3.6-6.4 3.7-2.7 8.9-2.7 2.1 0 4.1 0.5 1.9 0.5 3.5 1.3 1.5-0.8 3.5-1.3 1.9-0.5 4-0.5 5.2 0 8.9 2.7 3.6 2.6 3.6 6.4v20.9h1.6zm29.7 0h-11.3v-11.6h-5.6v11.6h-11.3v-2.9h1.6v-8.7h-1.5v-2.8h1.5v-9.4q0-3.8 3.7-6.4 3.6-2.7 8.8-2.7 5.2 0 8.9 2.7 3.6 2.6 3.6 6.4v20.9h1.6zm-11.3-14.4v-12.3q0-0.1 0-0.2 0-0.1 0-0.1-0.1-1.3-0.9-2.3-0.7-0.9-1.9-0.9-1.2 0-1.9 0.9-0.8 1-0.9 2.3 0 0 0 0.1 0 0.1 0 0.2v12.3zm41.2 14.4h-11.7v-26.4q0-1.1-0.7-1.8-0.8-0.8-1.9-0.8-1.2 0-2 0.9-0.8 0.8-0.8 2v26.1h-11.3v-2.8h1.6v-26.8h-1.6v-2.9h11.3v2.4q1.1-1 2.7-1.6 1.5-0.6 3.1-0.7 0.2 0 0.2 0 0.1 0 0.2 0 3.8 0 6.4 2.7 2.7 2.6 2.7 6.3v20.9h1.8zm28-2q-2.4 1.4-4.9 1.8-2.6 0.3-5.3 0.4-0.2 0-0.5 0-0.2 0-0.4 0-8.4 0-11.9-4.5-3.5-4.5-3.6-12.5 0-7.9 4.4-11.9 4.5-4 13.3-4 1.1 0 2.1 0.1 1 0.1 2 0.3 0.2 0.1 0.4 0.1 0.3 0 0.5 0.1v4.4h-4.1l-0.7-2.2q0 0-0.1 0-0.1 0-0.1 0-0.1 0-0.2 0-0.1 0-0.2 0-2.7 0-4.2 2.3-1.4 2.3-2 5-0.4 1.8-0.6 3.5-0.1 1.6-0.1 2.6 0 1.1 0 2.3 0 1.1 0.1 2.3 0.4 3.5 1.7 6.3 1.4 2.9 4.7 3.2v-10.7q0-1.1-0.6-1.5-0.7-0.6-1.8-0.6v-2.6h3.6q3.5 0 6 2.4 2.5 2.3 2.5 5.8zm29.9 2h-11.2v-11.7h-5.6v11.7h-11.3v-2.9h1.6v-8.8h-1.5v-2.7h1.5v-9.4q0-3.8 3.6-6.5 3.7-2.6 8.8-2.6 5.3 0 8.9 2.6 3.7 2.7 3.7 6.5v20.9h1.5zm-11.2-14.4v-12.3q0-0.1 0-0.2 0-0.1 0-0.2-0.2-1.2-0.9-2.2-0.7-1-2-1-1.2 0-1.9 1-0.7 1-0.8 2.2 0 0.1 0 0.2 0 0.1 0 0.2v12.3zm44.6 3.5q0 3.7-2.9 6.7-2.9 2.8-8.5 5.2l-3.1-2q2.6-1.4 3.6-3.1 1.1-1.7 1.1-3.4 0-1.9-1-3.7-1-1.9-2.3-3.4-2-2.2-2.8-4.1-0.8-2-0.8-3.7 0-3.6 3-6.3 3.1-2.7 7.3-4.8l5.9 3.9-2.9 2-2-0.8q-0.7 0.4-1 1.2-0.3 0.7-0.3 1.5 0 0.1 0 0.2 0 0 0 0.1 0.1 1 0.4 1.9 0.4 0.9 0.8 1.4 0.7 0.9 1.4 1.8 0.6 0.8 1.2 1.6 1.2 1.6 2 3.4 0.9 1.7 0.9 4.4zm28.5-13.7h-4.1l-1.3-5h-3.5v26.7h1.4v2.9h-0.1-12.6v-2.9h1.4v-26.7h-3.5l-1.4 5h-4.1v-7.9q7 0 13.9 0 7 0 13.9 0zm27.1 8.2q0 8.2-3.2 12.4-3.3 4.2-10.1 4.2-6.8 0-10.1-4.2-3.2-4.2-3.2-12.4 0-8.2 3.2-12.3 3.3-4.2 10.1-4.2 6.8 0 10.1 4.2 3.2 4.1 3.2 12.3zm-10.4 0q0-5.7-0.5-9.7-0.4-4.1-2.4-4.1-2 0-2.5 4.1-0.4 4-0.4 9.7 0 5.8 0.4 9.8 0.5 4.1 2.5 4.1 2 0 2.4-4.1 0.5-4 0.5-9.8zm38.1 16.4h-9.7q-0.6-3.3-1.9-5.6-1.3-2.3-3.5-3.4v9h-11.2v-2.9h1.5v-26.7h-1.5v-2.9h10.6q6.2 0 10.6 3.1 4.4 3 4.4 7.6 0 2.9-2 5.5-1.9 2.5-5 4.3 2.5 1.7 3.9 4 1.5 2.3 2.3 5.1h1.5zm-11.2-19.6q0.2-0.9 0.3-1.7 0-0.8 0-1.6 0-2.6-0.8-4.3-0.9-1.8-2.2-2.2-0.1-0.1-0.3-0.1-0.1 0-0.3 0 0 0-0.1 0-0.1 0-0.2 0-0.1 0-0.1 0.1-0.1 0-0.2 0v17.2q1.2-1 2.3-2.9 1-2 1.6-4.5zm34.2 19.6h-13.3q-2.9 0-5-2.1-2.1-2.1-2.1-5v-4.6h-1.7v-2.6h1.7v-11.1q0-2.9 2.1-5 2.1-2.1 5-2.1h12.6v4.7h-3.6l-0.5-2h-3.2q-1.1 0-2 0.9-0.8 0.8-0.8 2v12.6h7.5v2.6h-7.5v6.1q0 1.2 0.8 2 0.9 0.8 2 0.8h3.8l0.6-1.9h3.6z"/>
</svg>