<svg version="1.2" xmlns="http://www.w3.org/2000/svg" viewBox="0 0 350 200" width="350" height="200">
	<title>Proyecto nuevo</title>
	<style>
		.s0 { fill: #a73121 } 
		.s1 { fill: #ffffff;stroke: #a73121;stroke-miterlimit:0;stroke-dasharray: NaN } 
		.s2 { fill: #ffffff } 
		.s3 { fill: #000000 } 
	</style>
	<path id="Background" class="s0" d="m109.1 199.6c-54.8 0-99.1-43.2-99.1-96.8 0-53.5 44.3-96.8 99.1-96.8 54.8 0 99.1 43.3 99.1 96.8 0 53.6-44.3 96.8-99.1 96.8z"/>
	<path id="kuru" class="s1" aria-label="kuru"  d="m147.2 90.2v17.8h-12.5q-7.1 0-12.4-5.3l-12.5-12.5v17.8h-17.8v-57.9h17.8v22.7l15.1-22.6h20.5l-20 29.9 8.4 8.4q1.7 1.7 5.4 1.7zm57.8-40v31.1q0 11-7.8 18.9-7.8 7.8-18.9 7.8-11 0-18.8-7.8-7.9-7.9-7.9-18.9v-31.1h17.8v31.1q0 3.6 2.6 6.3 2.7 2.6 6.3 2.6 3.7 0 6.3-2.6 2.6-2.7 2.6-6.3v-31.1zm59.7 40v17.8h-11.6q-7.1 0-12.5-5.3l-13.3-13.4v18.7h-17.8v-57.8h33.8q8.1 0 13.8 5.7 5.8 5.7 5.8 13.8 0 5.8-3.2 10.7-3.1 4.8-8.4 7.2 1.2 2.6 4.5 2.6zm-19.6-20.5q0-4.4-5.4-4.4h-12.4v8.9h12.4q5.4 0 5.4-4.5zm77.4-19.6v31.2q0 11-7.8 18.9-7.9 7.8-18.9 7.8-11 0-18.9-7.8-7.8-7.9-7.8-18.9v-31.1h17.8v31.1q0 3.6 2.6 6.3 2.7 2.6 6.3 2.6 3.6 0 6.2-2.6 2.7-2.7 2.7-6.3v-31.1z"/>
	<path id="manga store" class="s2" aria-label="manga store"  d="m114 113.5v19.5h-6v-6.6l-4.5 6.6-4.5-6.6v6.6h-6v-19.5h6l4.5 6.6 4.5-6.6zm15.9 0l6.6 19.5h-6.3l-0.8-2.4h-6.8l-0.8 2.4h-6.3l6.6-19.5zm-5.9 12.9h4l-2-5.8zm32-12.9v19.5h-6q0-5.6-2.5-8.2-1.6-1.7-3.5-1.7v9.9h-6v-19.5h0.1q4.2 0 7.7 1.6 3.1 1.5 4.2 3.5v-5.1zm19.5 9v10.5h-8.3q-4 0-6.9-2.9-2.8-2.8-2.8-6.9 0-4 2.8-6.8 2.9-2.9 6.9-2.9h8.3v6h-8.3q-1.5 0-2.6 1.1-1.1 1.1-1.1 2.6 0 1.6 1.1 2.7 1.1 1.1 2.6 1.1h2.3v-4.5zm15.9-9l6.6 19.5h-6.3l-0.8-2.4h-6.8l-0.8 2.4h-6.3l6.6-19.5zm-5.9 12.9h4l-2-5.8z"/>
	<path id="manga store" class="s3" aria-label="manga store"  d="m229.5 113.5v6h-7.9q-0.3 0.1-0.3 0.4 0 0.1 0.1 0.3l2.3 1.3q3.7 2 3.7 5.5 0 2.5-1.8 4.3-1.7 1.7-4.2 1.7h-9.9v-6h7.9q0.3-0.1 0.3-0.4 0-0.1-0.1-0.3l-2.3-1.3q-3.7-2-3.7-5.5 0-2.5 1.7-4.2 1.8-1.8 4.3-1.8zm19.5 0v6h-6v13.5h-6v-13.5h-6v-6zm21 9.8q0 4-2.9 6.9-2.8 2.8-6.9 2.8-4 0-6.8-2.8-2.9-2.9-2.9-7 0-4 2.9-6.8 2.8-2.9 6.8-2.9 4.1 0 6.9 2.9 2.9 2.8 2.9 6.8zm-6 0q0-1.5-1.1-2.6-1.1-1.1-2.7-1.1-1.5 0-2.6 1.1-1.1 1.1-1.1 2.6 0 1.6 1.1 2.7 1.1 1.1 2.6 1.1 1.6 0 2.7-1.1 1.1-1.1 1.1-2.7zm26.1 3.8v6h-3.9q-2.4 0-4.2-1.8l-4.5-4.5v6.3h-6v-19.5h11.4q2.7 0 4.7 2 1.9 1.9 1.9 4.6 0 1.9-1.1 3.6-1 1.6-2.8 2.4 0.4 0.9 1.5 0.9zm-6.6-6.9q0-1.5-1.8-1.5h-4.2v3h4.2q1.8 0 1.8-1.5zm26.1 6.9v6h-18v-19.5h18v6h-12v1.5h9v4.5h-9v1.5z"/>
</svg>