<svg transform="scale(1)" xmlns="http://www.w3.org/2000/svg" viewBox="0 0 100 100" class="show_show__wrapper__graphic__5Waiy "><title>React</title><defs><style>.cls-1{fill:#ffffff;}.cls-2{fill:#000000;}</style></defs><g id="_0568_Shopping_Cart" data-name="0568_Shopping_Cart"><g id="Layer_10" data-name="Layer 10"><path class="cls-1" d="M30.85,25.61H41.57s-3,28.21,42.94,24.86l-1.73,7.47H35.61L30,26.13Z"></path><path class="cls-1" d="M44.89,79.28a4.1,4.1,0,0,1,2.47-3.76,4.1,4.1,0,1,0,0,7.52A4.1,4.1,0,0,1,44.89,79.28Z"></path><path class="cls-1" d="M69,79.28a4.1,4.1,0,0,1,2.47-3.76,4.1,4.1,0,1,0,0,7.52A4.1,4.1,0,0,1,69,79.28Z"></path></g><g id="Layer_3" data-name="Layer 3"><path class="cls-2" d="M90.8,23.22a1.45,1.45,0,0,0-1.13-.53H30.27l-1.49-7.36a1.45,1.45,0,0,0-1.43-1.17H10.27a1.46,1.46,0,0,0,0,2.92h15.9l8.24,41.07h0l2.17,10.46A1.47,1.47,0,0,0,38,69.78H79.2a1.46,1.46,0,1,0,0-2.92h-40l-1.56-7.53H82.84a1.46,1.46,0,0,0,1.43-1.17L91.1,24.44A1.45,1.45,0,0,0,90.8,23.22ZM81.65,56.41H37l-6.18-30.8h57Z"></path><path class="cls-2" d="M46.57,72.71a6.57,6.57,0,1,0,6.57,6.56A6.57,6.57,0,0,0,46.57,72.71Zm0,10.22a3.65,3.65,0,1,1,3.65-3.65h0A3.64,3.64,0,0,1,46.57,82.93Z"></path><path class="cls-2" d="M71.05,72.71a6.57,6.57,0,1,0,6.57,6.56A6.57,6.57,0,0,0,71.05,72.71Zm0,10.22a3.65,3.65,0,1,1,3.65-3.65h0A3.64,3.64,0,0,1,71.05,82.93Z"></path></g></g></svg>